<svg width="46" height="38" viewBox="0 0 46 38" fill="none" xmlns="http://www.w3.org/2000/svg">
<path d="M29.9885 0.500008C25.9065 0.500008 19.7835 9.54445 20.5999 10.3667C21.4163 11.1889 35.2951 9.54445 35.7033 10.3667C36.1115 11.1889 36.5197 13.2444 35.7033 14.0667C34.8869 14.8889 10.395 13.2444 9.57861 14.0667C8.76221 14.8889 9.17041 19.4111 9.57861 19.8222C9.9868 20.2333 32.0295 19.4111 32.4377 19.8222C32.8459 20.2333 32.8459 23.1111 32.4377 23.5222C32.0295 23.9333 13.2524 23.5222 11.6196 23.5222C9.9868 23.5222 5.49663 27.6333 6.31303 28.4556C7.12942 29.2778 22.2327 27.9074 23.0491 28.4556C23.8655 29.0037 25.0901 34.2111 28.7639 34.2111C32.4377 34.2111 45.5 20.6445 45.5 16.9445C45.5 13.2445 34.0705 0.500008 29.9885 0.500008Z" fill="#FDDD00" stroke="white"/>
<path d="M16.0115 37.5C20.0935 37.5 26.2164 28.0444 25.4001 27.6333C24.5837 27.2222 12.3377 28.8667 10.2967 27.6333C8.25575 26.4 8.25575 24.7556 10.2967 23.9333C12.3377 23.1111 33.1558 24.3444 35.1968 23.1111C37.2378 21.8778 36.4214 20.2333 35.1968 19C33.9722 17.7667 14.3787 19 13.5623 18.1778C12.7459 17.3556 11.5213 16.1222 13.5623 14.4778C15.6033 12.8333 33.9722 14.8889 35.605 14.8889C37.2378 14.8889 40.5034 10.3667 39.687 9.54444C38.8706 8.72221 22.9509 9.54444 22.9509 9.54444C20.9099 7.07777 20.9099 3.78888 17.2361 3.78888C13.5623 3.78888 0.500035 17.3555 0.5 21.0555C0.499965 24.7555 11.9295 37.5 16.0115 37.5Z" fill="#196BE8" stroke="#196BE8"/>
</svg>
