<svg width="40" height="40" viewBox="0 0 40 40" fill="#526ED3" xmlns="http://www.w3.org/2000/svg">
<path d="M25.8333 31.9167H10.8333C5.26667 31.9167 2.08333 28.7334 2.08333 23.1667V14.1667C2.08333 8.60002 5.26667 5.41669 10.8333 5.41669H15.3333C15.7333 5.41669 16.1167 5.61678 16.35 5.93345C16.5833 6.25012 16.65 6.68334 16.5167 7.06667C16.3333 7.58334 16.25 8.15002 16.25 8.75002V15.2501C16.25 16.5167 16.6333 17.5667 17.3667 18.3C18.1 19.0333 19.15 19.4167 20.4167 19.4167C21.1 19.4167 21.6667 19.9834 21.6667 20.6667V22.6666L26.2167 19.6167C26.4167 19.4834 26.6667 19.4 26.9167 19.4H31.25C31.85 19.4 32.4167 19.3167 32.9333 19.1333C33.3167 19 33.7333 19.0666 34.0667 19.2999C34.4 19.5333 34.5833 19.9166 34.5833 20.3166V23.15C34.5833 28.7334 31.4 31.9167 25.8333 31.9167ZM10.8333 7.91669C6.63333 7.91669 4.58333 9.96669 4.58333 14.1667V23.1667C4.58333 27.3667 6.63333 29.4167 10.8333 29.4167H25.8333C30.0333 29.4167 32.0833 27.3667 32.0833 23.1667V21.8667C31.8167 21.9 31.5333 21.9167 31.25 21.9167H27.3L22.8 24.9166C22.0667 25.3833 21.15 25.4334 20.4 25.0167C19.65 24.6167 19.1833 23.8334 19.1833 22.9834V21.8166C17.7833 21.6 16.55 20.9834 15.6167 20.0668C14.4333 18.8834 13.7667 17.1667 13.7667 15.2501V8.75002C13.7667 8.46669 13.7833 8.18335 13.8 7.91669H10.8333Z"/>
<path d="M21.5 25.3001C21.1167 25.3001 20.7333 25.2 20.3833 25.0167C19.6333 24.6167 19.1667 23.8334 19.1667 22.9834V21.8166C17.7667 21.5999 16.5333 20.9834 15.6 20.0667C14.4167 18.8834 13.75 17.1667 13.75 15.25V8.74998C13.75 7.86665 13.8833 7.03333 14.15 6.26666C15.0833 3.65 17.4167 2.08331 20.4167 2.08331H31.25C35.1667 2.08331 37.9167 4.81665 37.9167 8.74998V15.25C37.9167 18.25 36.3667 20.5834 33.75 21.5167C32.95 21.7834 32.1167 21.9167 31.25 21.9167H27.3L22.8 24.9166C22.4 25.1832 21.95 25.3001 21.5 25.3001ZM20.4167 4.58331C18.5 4.58331 17.0833 5.49998 16.5167 7.08331C16.35 7.58331 16.25 8.14998 16.25 8.74998V15.25C16.25 16.5167 16.6333 17.5666 17.3667 18.2999C18.1 19.0333 19.15 19.4167 20.4167 19.4167C21.1 19.4167 21.6667 19.9834 21.6667 20.6667V22.6666L26.2167 19.6167C26.4167 19.4833 26.6667 19.4 26.9167 19.4H31.25C31.85 19.4 32.4167 19.3166 32.9333 19.1333C34.5167 18.5666 35.4167 17.15 35.4167 15.2333V8.7333C35.4167 6.16663 33.8167 4.56663 31.25 4.56663H20.4167V4.58331Z"/>
<path d="M24.3332 37.9166H12.3332C11.6498 37.9166 11.0832 37.35 11.0832 36.6666C11.0832 35.9833 11.6498 35.4166 12.3332 35.4166H24.3332C25.0165 35.4166 25.5832 35.9833 25.5832 36.6666C25.5832 37.35 25.0165 37.9166 24.3332 37.9166Z"/>
<path d="M18.3333 37.9167C17.65 37.9167 17.0833 37.35 17.0833 36.6667V30.6667C17.0833 29.9834 17.65 29.4167 18.3333 29.4167C19.0167 29.4167 19.5833 29.9834 19.5833 30.6667V36.6667C19.5833 37.35 19.0167 37.9167 18.3333 37.9167Z"/>
<path d="M25.7332 13.3334C25.0332 13.3334 24.4832 12.7667 24.4832 12.0834C24.4832 11.4 25.0499 10.8334 25.7332 10.8334C26.4166 10.8334 26.9832 11.4 26.9832 12.0834C26.9832 12.7667 26.4166 13.3334 25.7332 13.3334Z"/>
<path d="M30.4167 13.3334C29.7167 13.3334 29.1667 12.7667 29.1667 12.0834C29.1667 11.4 29.7333 10.8334 30.4167 10.8334C31.1 10.8334 31.6667 11.4 31.6667 12.0834C31.6667 12.7667 31.1 13.3334 30.4167 13.3334Z"/>
<path d="M21.0335 13.3334C20.3335 13.3334 19.7835 12.7667 19.7835 12.0834C19.7835 11.4 20.3502 10.8334 21.0335 10.8334C21.7169 10.8334 22.2835 11.4 22.2835 12.0834C22.2835 12.7667 21.7335 13.3334 21.0335 13.3334Z"/>
</svg>
